<svg width="68" height="13" viewBox="0 0 68 13" fill="none" xmlns="http://www.w3.org/2000/svg">
<path d="M45.5296 4.68257C44.8771 4.68257 44.2392 4.88391 43.6967 5.26111C43.1541 5.63832 42.7312 6.17446 42.4815 6.80173C42.2318 7.429 42.1665 8.11924 42.2938 8.78514C42.4211 9.45105 42.7353 10.0627 43.1967 10.5428C43.6581 11.0229 44.246 11.3499 44.886 11.4823C45.5259 11.6148 46.1893 11.5468 46.7922 11.287C47.395 11.0271 47.9103 10.5871 48.2728 10.0226C48.6353 9.45809 48.8288 8.79438 48.8288 8.11543C48.8279 7.20528 48.48 6.33269 47.8615 5.68912C47.2429 5.04554 46.4043 4.68355 45.5296 4.68257V4.68257ZM45.5296 13C44.601 13.0001 43.6931 12.7137 42.921 12.177C42.1488 11.6402 41.5469 10.8773 41.1915 9.98458C40.8361 9.0919 40.743 8.1096 40.9242 7.16191C41.1053 6.21422 41.5525 5.3437 42.2091 4.66046C42.8658 3.97721 43.7024 3.51193 44.6132 3.32345C45.524 3.13498 46.4681 3.23177 47.326 3.6016C48.1839 3.97142 48.9172 4.59767 49.433 5.40113C49.9489 6.20459 50.2241 7.14917 50.224 8.11543C50.2226 9.41045 49.7276 10.652 48.8475 11.5677C47.9674 12.4834 46.7742 12.9985 45.5296 13" fill="#004BFA"/>
<path d="M14.5688 11.4105C13.9423 11.4106 13.3298 11.2174 12.8088 10.8553C12.2879 10.4932 11.8818 9.97852 11.642 9.37628C11.4022 8.77404 11.3394 8.11133 11.4616 7.47197C11.5838 6.83261 11.8855 6.24531 12.3285 5.78436C12.7715 5.32341 13.3359 5.00951 13.9504 4.88236C14.5649 4.75521 15.2018 4.82053 15.7806 5.07005C16.3594 5.31958 16.854 5.74209 17.202 6.28416C17.55 6.82624 17.7357 7.46351 17.7356 8.1154C17.7347 8.98901 17.4007 9.82656 16.807 10.4443C16.2133 11.062 15.4084 11.4095 14.5688 11.4105V11.4105ZM20.2933 11.0343L18.9046 9.58936C19.2627 8.45349 19.1966 7.21898 18.7195 6.13152C18.2424 5.04405 17.3893 4.18336 16.33 3.72074C15.2706 3.25812 14.0827 3.22748 13.0026 3.63493C11.9225 4.04238 11.0295 4.85803 10.5012 5.91957C9.97294 6.98111 9.84817 8.2107 10.1517 9.36362C10.4553 10.5165 11.1649 11.5083 12.1394 12.1415C13.1139 12.7746 14.2818 13.0028 15.4106 12.7806C16.5395 12.5584 17.5465 11.902 18.2313 10.9422L19.3065 12.061C19.3713 12.1284 19.4482 12.1819 19.5329 12.2184C19.6176 12.2548 19.7083 12.2736 19.7999 12.2736C19.8915 12.2736 19.9823 12.2548 20.0669 12.2184C20.1516 12.1819 20.2285 12.1284 20.2933 12.061C20.3581 11.9936 20.4095 11.9135 20.4445 11.8255C20.4796 11.7374 20.4976 11.643 20.4976 11.5476C20.4976 11.4523 20.4796 11.3579 20.4445 11.2698C20.4095 11.1817 20.3581 11.1017 20.2933 11.0343" fill="#004BFA"/>
<path d="M4.56262 11.4105C3.93612 11.4106 3.32365 11.2174 2.80268 10.8554C2.28171 10.4933 1.87564 9.97855 1.63583 9.37631C1.39602 8.77407 1.33325 8.11136 1.45544 7.472C1.57764 6.83263 1.87932 6.24534 2.32233 5.78439C2.76533 5.32343 3.32977 5.00954 3.94424 4.88239C4.55872 4.75524 5.19563 4.82056 5.77442 5.07008C6.35321 5.3196 6.84789 5.74212 7.19589 6.28419C7.54388 6.82626 7.72956 7.46354 7.72944 8.11542C7.7285 8.98904 7.39455 9.82659 6.80086 10.4443C6.20717 11.0621 5.40223 11.4095 4.56262 11.4105V11.4105ZM4.56262 3.36799C3.3801 3.36721 2.24386 3.8461 1.39521 4.70296V0.72586C1.39521 0.53335 1.32171 0.348725 1.19088 0.212599C1.06006 0.0764742 0.882619 0 0.697603 0C0.512587 0 0.335149 0.0764742 0.204323 0.212599C0.0734972 0.348725 0 0.53335 0 0.72586V8.20623C0 8.21674 0 8.22662 0 8.23712C0.0231219 9.17047 0.310264 10.076 0.825499 10.8404C1.34073 11.6048 2.06118 12.1941 2.89669 12.5347C3.73219 12.8752 4.64566 12.9518 5.52279 12.7548C6.39991 12.5579 7.20174 12.0962 7.82795 11.4275C8.45416 10.7588 8.87694 9.91274 9.04338 8.99528C9.20982 8.07782 9.11253 7.12966 8.76369 6.26944C8.41486 5.40922 7.82996 4.67515 7.08218 4.15907C6.33441 3.64298 5.45697 3.36781 4.55965 3.36799" fill="#004BFA"/>
<path d="M40.2406 12.8629H36.3756C35.1655 12.8629 34.005 12.3627 33.1493 11.4724C32.2937 10.5821 31.813 9.37457 31.813 8.11548C31.813 6.85638 32.2937 5.64885 33.1493 4.75853C34.005 3.86822 35.1655 3.36804 36.3756 3.36804H38.3432C38.5282 3.36804 38.7056 3.44452 38.8364 3.58064C38.9673 3.71677 39.0408 3.90139 39.0408 4.0939C39.0408 4.28641 38.9673 4.47104 38.8364 4.60716C38.7056 4.74329 38.5282 4.81976 38.3432 4.81976H36.3756C35.5432 4.83162 34.7486 5.18403 34.164 5.80075C33.5793 6.41747 33.2516 7.2489 33.2516 8.11517C33.2516 8.98143 33.5793 9.81286 34.164 10.4296C34.7486 11.0463 35.5432 11.3987 36.3756 11.4106H40.2406C40.4222 11.4161 40.5946 11.495 40.7211 11.6306C40.8477 11.7662 40.9185 11.9477 40.9185 12.1367C40.9185 12.3257 40.8477 12.5073 40.7211 12.6429C40.5946 12.7785 40.4222 12.8574 40.2406 12.8629" fill="#004BFA"/>
<path d="M30.0126 12.8629C29.8276 12.8627 29.6503 12.7862 29.5195 12.6501C29.3887 12.514 29.3152 12.3295 29.315 12.137V8.11548C29.3207 7.67892 29.2431 7.24553 29.0865 6.84047C28.9299 6.43542 28.6975 6.06677 28.4029 5.75594C28.1082 5.44512 27.7571 5.19831 27.37 5.02985C26.9829 4.86139 26.5675 4.77464 26.1479 4.77464C25.7283 4.77464 25.3129 4.86139 24.9258 5.02985C24.5386 5.19831 24.1876 5.44512 23.8929 5.75594C23.5982 6.06677 23.3659 6.43542 23.2093 6.84047C23.0527 7.24553 22.975 7.67892 22.9808 8.11548V12.137C22.9755 12.326 22.8996 12.5053 22.7693 12.637C22.639 12.7687 22.4645 12.8423 22.2829 12.8423C22.1012 12.8423 21.9267 12.7687 21.7964 12.637C21.6661 12.5053 21.5903 12.326 21.585 12.137V8.11548C21.585 6.85638 22.0657 5.64885 22.9213 4.75853C23.777 3.86822 24.9375 3.36804 26.1476 3.36804C27.3577 3.36804 28.5182 3.86822 29.3738 4.75853C30.2295 5.64885 30.7102 6.85638 30.7102 8.11548V12.137C30.71 12.3295 30.6365 12.514 30.5057 12.6501C30.3749 12.7862 30.1976 12.8627 30.0126 12.8629" fill="#004BFA"/>
<path d="M67.9969 3.95677C67.9969 3.76426 67.9234 3.57963 67.7926 3.44351C67.6617 3.30738 67.4843 3.23091 67.2993 3.23091C67.1143 3.23091 66.9368 3.30738 66.806 3.44351C66.6752 3.57963 66.6017 3.76426 66.6017 3.95677V8.11548C66.5903 8.98166 66.2516 9.80835 65.6589 10.4167C65.0662 11.025 64.2671 11.3661 63.4346 11.3661C62.602 11.3661 61.803 11.025 61.2102 10.4167C60.6175 9.80835 60.2788 8.98166 60.2674 8.11548V8.11548V3.95677C60.2702 3.85962 60.2541 3.7629 60.2203 3.67232C60.1864 3.58174 60.1355 3.49915 60.0704 3.42943C60.0053 3.35972 59.9275 3.3043 59.8414 3.26645C59.7554 3.22861 59.6629 3.20911 59.5695 3.20911C59.4761 3.20911 59.3837 3.22861 59.2977 3.26645C59.2116 3.3043 59.1338 3.35972 59.0687 3.42943C59.0036 3.49915 58.9527 3.58174 58.9188 3.67232C58.885 3.7629 58.8689 3.85962 58.8716 3.95677V8.11548C58.8716 8.98956 58.5379 9.82784 57.9439 10.4459C57.3499 11.064 56.5443 11.4112 55.7042 11.4112C54.8642 11.4112 54.0585 11.064 53.4645 10.4459C52.8705 9.82784 52.5368 8.98956 52.5368 8.11548V3.95677C52.5368 3.76426 52.4633 3.57963 52.3325 3.44351C52.2017 3.30738 52.0242 3.23091 51.8392 3.23091C51.6542 3.23091 51.4768 3.30738 51.3459 3.44351C51.2151 3.57963 51.1416 3.76426 51.1416 3.95677V8.11548C51.1416 9.14575 51.4638 10.148 52.0595 10.971C52.6553 11.7939 53.4922 12.3928 54.4438 12.6772C55.3955 12.9616 56.4103 12.9161 57.3349 12.5475C58.2596 12.1789 59.0438 11.5073 59.5692 10.6341C60.0941 11.5088 60.8785 12.1818 61.8037 12.5513C62.7289 12.9209 63.7447 12.9669 64.6972 12.6823C65.6498 12.3977 66.4873 11.7981 67.0832 10.9741C67.6791 10.1502 68.0009 9.14667 67.9999 8.11548L67.9969 3.95677Z" fill="#004BFA"/>
</svg>
