<svg width="191" height="36" viewBox="0 0 191 36" fill="none" xmlns="http://www.w3.org/2000/svg">
<path d="M127.877 12.6222C126.044 12.6222 124.253 13.1649 122.729 14.1817C121.205 15.1985 120.017 16.6437 119.316 18.3346C118.615 20.0255 118.431 21.8861 118.789 23.6811C119.146 25.4761 120.029 27.125 121.325 28.4191C122.621 29.7133 124.272 30.5946 126.069 30.9517C127.867 31.3087 129.73 31.1255 131.423 30.4251C133.116 29.7247 134.564 28.5386 135.582 27.0169C136.6 25.4951 137.143 23.706 137.143 21.8758C137.141 19.4224 136.164 17.0702 134.426 15.3354C132.689 13.6006 130.334 12.6248 127.877 12.6222V12.6222ZM127.877 35.0427C125.269 35.0431 122.719 34.271 120.55 32.8241C118.381 31.3773 116.691 29.3206 115.693 26.9143C114.694 24.508 114.433 21.8601 114.942 19.3055C115.451 16.7509 116.706 14.4043 118.551 12.5626C120.395 10.7208 122.745 9.46658 125.303 8.95852C127.861 8.45046 130.513 8.71138 132.922 9.70829C135.332 10.7052 137.392 12.3933 138.84 14.5591C140.289 16.7249 141.063 19.2712 141.062 21.8758C141.058 25.3667 139.668 28.7134 137.196 31.1819C134.724 33.6503 131.373 35.0388 127.877 35.0427" fill="white"/>
<path d="M40.9191 30.7585C39.1594 30.7588 37.4392 30.238 35.9759 29.2619C34.5127 28.2859 33.3722 26.8984 32.6986 25.275C32.0251 23.6516 31.8488 21.8652 32.192 20.1417C32.5352 18.4183 33.3825 16.8351 34.6268 15.5926C35.8711 14.35 37.4564 13.5039 39.1822 13.1612C40.9081 12.8184 42.697 12.9945 44.3226 13.6671C45.9483 14.3397 47.3377 15.4787 48.3151 16.9399C49.2925 18.4011 49.814 20.1189 49.8137 21.8762C49.8111 24.2311 48.8731 26.4888 47.2056 28.154C45.5381 29.8192 43.2773 30.7558 40.9191 30.7585ZM56.9974 29.7443L53.0971 25.8494C54.1028 22.7875 53.9172 19.4598 52.5772 16.5284C51.2372 13.597 48.8411 11.2769 45.8657 10.0299C42.8903 8.78282 39.5538 8.70024 36.5202 9.79856C33.4866 10.8969 30.9783 13.0956 29.4946 15.9571C28.0108 18.8186 27.6604 22.133 28.513 25.2409C29.3656 28.3487 31.3587 31.0221 34.0957 32.7288C36.8327 34.4356 40.1129 35.0507 43.2835 34.4517C46.4541 33.8527 49.2826 32.0835 51.2061 29.4962L54.226 32.5119C54.408 32.6937 54.624 32.8378 54.8618 32.9362C55.0995 33.0345 55.3544 33.0851 55.6117 33.0851C55.8691 33.0851 56.1239 33.0345 56.3617 32.9362C56.5994 32.8378 56.8155 32.6937 56.9974 32.5119C57.1794 32.3302 57.3238 32.1145 57.4222 31.877C57.5207 31.6396 57.5714 31.3851 57.5714 31.1281C57.5714 30.8711 57.5207 30.6167 57.4222 30.3792C57.3238 30.1418 57.1794 29.9261 56.9974 29.7443" fill="white"/>
<path d="M12.815 30.7583C11.0553 30.7587 9.33509 30.2379 7.87185 29.2618C6.40861 28.2857 5.26809 26.8983 4.59454 25.2749C3.921 23.6515 3.74468 21.8651 4.08789 20.1416C4.4311 18.4181 5.27842 16.835 6.52269 15.5925C7.76696 14.3499 9.35228 13.5038 11.0781 13.161C12.804 12.8183 14.5929 12.9944 16.2186 13.667C17.8442 14.3396 19.2336 15.4785 20.211 16.9397C21.1884 18.401 21.7099 20.1188 21.7096 21.876C21.707 24.231 20.769 26.4887 19.1015 28.1538C17.434 29.819 15.1732 30.7557 12.815 30.7583V30.7583ZM12.815 9.07879C9.49365 9.0767 6.3023 10.3676 3.9187 12.6773V1.95664C3.9187 1.4377 3.71227 0.940027 3.34482 0.573086C2.97737 0.206145 2.479 0 1.95935 0C1.43969 0 0.941331 0.206145 0.573881 0.573086C0.206431 0.940027 0 1.4377 0 1.95664L0 22.1208C0 22.1491 -2.03569e-06 22.1758 0.00833563 22.2041C0.0732778 24.72 0.879774 27.161 2.32691 29.2215C3.77404 31.2821 5.79755 32.8707 8.14423 33.7886C10.4909 34.7065 13.0565 34.9129 15.5201 34.382C17.9837 33.8512 20.2358 32.6066 21.9946 30.804C23.7534 29.0014 24.9409 26.7209 25.4084 24.2478C25.8759 21.7747 25.6026 19.2188 24.6228 16.9C23.643 14.5812 22.0003 12.6024 19.9 11.2112C17.7997 9.82007 15.3353 9.07832 12.815 9.07879" fill="white"/>
<path d="M113.023 34.6731H102.169C98.7707 34.6731 95.5112 33.3248 93.1079 30.9249C90.7046 28.5249 89.3545 25.2699 89.3545 21.8759C89.3545 18.4818 90.7046 15.2268 93.1079 12.8268C95.5112 10.4269 98.7707 9.07861 102.169 9.07861H107.694C108.214 9.07861 108.712 9.28476 109.079 9.6517C109.447 10.0186 109.653 10.5163 109.653 11.0353C109.653 11.5542 109.447 12.0519 109.079 12.4188C108.712 12.7857 108.214 12.9919 107.694 12.9919H102.169C100.991 12.9758 99.8212 13.1936 98.7278 13.6328C97.6344 14.072 96.6393 14.7238 95.8003 15.5503C94.9612 16.3767 94.295 17.3614 93.8403 18.4472C93.3856 19.533 93.1514 20.6981 93.1514 21.875C93.1514 23.0519 93.3856 24.2171 93.8403 25.3028C94.295 26.3886 94.9612 27.3733 95.8003 28.1998C96.6393 29.0263 97.6344 29.678 98.7278 30.1172C99.8212 30.5564 100.991 30.7743 102.169 30.7581H113.023C113.286 30.7505 113.547 30.7955 113.791 30.8904C114.036 30.9854 114.259 31.1283 114.447 31.3108C114.635 31.4934 114.785 31.7117 114.887 31.953C114.989 32.1943 115.042 32.4536 115.042 32.7156C115.042 32.9776 114.989 33.2369 114.887 33.4782C114.785 33.7195 114.635 33.9379 114.447 34.1204C114.259 34.3029 114.036 34.4459 113.791 34.5408C113.547 34.6357 113.286 34.6807 113.023 34.6731" fill="white"/>
<path d="M84.2966 34.6731C83.7771 34.6727 83.279 34.4664 82.9116 34.0995C82.5443 33.7327 82.3377 33.2353 82.3372 32.7165V21.8759C82.3534 20.6991 82.1352 19.5308 81.6954 18.4389C81.2556 17.3471 80.603 16.3533 79.7753 15.5155C78.9477 14.6776 77.9616 14.0123 76.8744 13.5582C75.7871 13.1041 74.6203 12.8703 73.4418 12.8703C72.2633 12.8703 71.0965 13.1041 70.0092 13.5582C68.922 14.0123 67.9359 14.6776 67.1083 15.5155C66.2806 16.3533 65.628 17.3471 65.1882 18.4389C64.7484 19.5308 64.5302 20.6991 64.5463 21.8759V32.7165C64.5315 33.2257 64.3184 33.7092 63.9525 34.0641C63.5865 34.4191 63.0964 34.6177 62.5862 34.6177C62.076 34.6177 61.5859 34.4191 61.2199 34.0641C60.8539 33.7092 60.6409 33.2257 60.626 32.7165V21.8759C60.626 18.4818 61.9761 15.2268 64.3794 12.8268C66.7827 10.4269 70.0422 9.07861 73.441 9.07861C76.8397 9.07861 80.0992 10.4269 82.5025 12.8268C84.9058 15.2268 86.256 18.4818 86.256 21.8759V32.7165C86.2555 33.2353 86.0489 33.7327 85.6816 34.0995C85.3142 34.4664 84.8161 34.6727 84.2966 34.6731" fill="white"/>
<path d="M190.983 10.6609C190.991 10.399 190.945 10.1383 190.85 9.89415C190.755 9.64998 190.612 9.42734 190.429 9.23942C190.247 9.05149 190.028 8.9021 189.786 8.80009C189.545 8.69807 189.285 8.64551 189.023 8.64551C188.76 8.64551 188.501 8.69807 188.259 8.80009C188.017 8.9021 187.799 9.05149 187.616 9.23942C187.433 9.42734 187.29 9.64998 187.195 9.89415C187.1 10.1383 187.055 10.399 187.062 10.6609V21.8712C187.03 24.2061 186.079 26.4345 184.414 28.0743C182.75 29.7142 180.505 30.6335 178.167 30.6335C175.829 30.6335 173.584 29.7142 171.92 28.0743C170.255 26.4345 169.304 24.2061 169.272 21.8712V21.8712V10.6609C169.272 10.142 169.065 9.6443 168.698 9.27736C168.33 8.91042 167.832 8.70427 167.312 8.70427C166.793 8.70427 166.294 8.91042 165.927 9.27736C165.559 9.6443 165.353 10.142 165.353 10.6609V21.8712C165.353 24.2274 164.416 26.487 162.747 28.1531C161.079 29.8192 158.816 30.7552 156.457 30.7552C154.097 30.7552 151.834 29.8192 150.166 28.1531C148.498 26.487 147.56 24.2274 147.56 21.8712V10.6609C147.56 10.142 147.354 9.6443 146.986 9.27736C146.619 8.91042 146.121 8.70427 145.601 8.70427C145.081 8.70427 144.583 8.91042 144.215 9.27736C143.848 9.6443 143.642 10.142 143.642 10.6609V21.8712C143.639 24.6509 144.542 27.3559 146.216 29.577C147.89 31.7981 150.242 33.4144 152.918 34.1815C155.593 34.9486 158.446 34.8247 161.045 33.8285C163.643 32.8324 165.846 31.0181 167.321 28.6603C168.795 31.0181 170.998 32.8324 173.597 33.8285C176.195 34.8247 179.048 34.9486 181.723 34.1815C184.399 33.4144 186.751 31.7981 188.425 29.577C190.099 27.3559 191.002 24.6509 191 21.8712L190.983 10.6609Z" fill="white"/>
</svg>
