<svg width="18" height="18" viewBox="0 0 18 18" fill="none" xmlns="http://www.w3.org/2000/svg">
<rect width="18" height="18" rx="9" fill="#C5C5C5"/>
<path d="M10.161 4.54545L9.94869 11.1055H8.05131L7.83896 4.54545H10.161ZM8.99769 14.1339C8.66838 14.1339 8.38524 14.0169 8.14826 13.783C7.91436 13.5491 7.79741 13.266 7.79741 12.9336C7.79741 12.6074 7.91436 12.3288 8.14826 12.098C8.38524 11.8641 8.66838 11.7472 8.99769 11.7472C9.31469 11.7472 9.59322 11.8641 9.83327 12.098C10.0764 12.3288 10.198 12.6074 10.198 12.9336C10.198 13.1552 10.141 13.3568 10.0272 13.5384C9.91637 13.7199 9.77018 13.8646 9.5886 13.9723C9.4101 14.08 9.21313 14.1339 8.99769 14.1339Z" fill="white"/>
</svg>
