<svg width="50" height="50" viewBox="0 0 50 50" fill="none" xmlns="http://www.w3.org/2000/svg">
<rect x="0.5" y="0.5" width="49" height="49" rx="24.5" fill="white"/>
<path d="M35.68 29.5067C34.04 29.5067 32.4533 29.24 30.9733 28.76C30.5067 28.6 29.9867 28.72 29.6267 29.08L27.5333 31.7067C23.76 29.9067 20.2267 26.5067 18.3467 22.6L20.9467 20.3867C21.3067 20.0133 21.4133 19.4933 21.2667 19.0267C20.7733 17.5467 20.52 15.96 20.52 14.32C20.52 13.6 19.92 13 19.2 13H14.5867C13.8667 13 13 13.32 13 14.32C13 26.7067 23.3067 37 35.68 37C36.6267 37 37 36.16 37 35.4267V30.8267C37 30.1067 36.4 29.5067 35.68 29.5067Z" fill="#2457F7"/>
<rect x="0.5" y="0.5" width="49" height="49" rx="24.5" stroke="#BDD1FF"/>
</svg>
